<svg xmlns="http://www.w3.org/2000/svg" viewBox="0 0 562.29 65.11"><defs><style>.cls-1{fill:#f2f2f2;}</style></defs><title>txt-01</title><g id="Layer_2" data-name="Layer 2"><g id="Layer_1-2" data-name="Layer 1"><path class="cls-1" d="M14.2,51.35a60.46,60.46,0,0,1,6.2.23,55.83,55.83,0,0,1,6.2.88,48.12,48.12,0,0,1,5.65,1.47,28.15,28.15,0,0,1,4.63,2,10.26,10.26,0,0,1,3,2.38,3.75,3.75,0,0,1,1,2.7,4.93,4.93,0,0,1-1.27,3.22,3,3,0,0,1-2.37.93A4.29,4.29,0,0,1,36,64.33q-1-.73-2.55-1.8t-3.77-2.35A38,38,0,0,0,24.8,57.8,37.68,37.68,0,0,0,18.9,56,32.94,32.94,0,0,0,12,55.2a12.26,12.26,0,0,1-3.73,3.6A7.26,7.26,0,0,1,4.8,59.85a6.65,6.65,0,0,1-2.33-.35A4.33,4.33,0,0,1,1,58.63,3,3,0,0,1,.22,57.5,3.16,3.16,0,0,1,0,56.4a3.7,3.7,0,0,1,.47-1.55A4.65,4.65,0,0,1,2.6,53a6.8,6.8,0,0,1,2.5-.9,13.62,13.62,0,0,1,2.15-.45q.35-1.1.67-2.4t.58-2.85q.35-2.05.63-5.23t.5-6.83q.22-3.65.4-7.48l.32-7.1q.15-3.27.28-5.68t.27-3.3a3,3,0,0,1,.82-1.6A5.87,5.87,0,0,1,13.27,8.1a6,6,0,0,1,1.85-.6,4,4,0,0,1,1.75.08,2.11,2.11,0,0,1,1.2.85,2.39,2.39,0,0,1,.23,1.78A20.32,20.32,0,0,0,18.07,13q-.07,2.15-.2,5.23L17.6,25q-.15,3.68-.35,7.35t-.53,7.13q-.33,3.45-.77,6A27.28,27.28,0,0,1,14.2,51.35ZM3.3,58.5a1.9,1.9,0,0,0,1.33-.6A6.47,6.47,0,0,0,5.7,56.55a11.8,11.8,0,0,0,1-1.95,5.34,5.34,0,0,0-2.75.6,3.45,3.45,0,0,0-1.37,1.35A1.74,1.74,0,0,0,2.4,57.9.85.85,0,0,0,3.3,58.5Z"/><path class="cls-1" d="M31.9,20.2a1.67,1.67,0,0,1-.73,1.57,3.07,3.07,0,0,1-1.8.35A9,9,0,0,1,27,21.6a12.69,12.69,0,0,1-2.35-1.1,9.39,9.39,0,0,1-1.8-1.37,2,2,0,0,1-.73-1.37,2.39,2.39,0,0,1,.38-1.45,2.11,2.11,0,0,1,1-.72A4.77,4.77,0,0,1,25,15.33l1.8,0a3.83,3.83,0,0,1,1.83.5A6.76,6.76,0,0,1,30.27,17a7.08,7.08,0,0,1,1.18,1.6A3.37,3.37,0,0,1,31.9,20.2Zm5.65,15.6a1.44,1.44,0,0,1,.35-.62.38.38,0,0,1,.4-.1.53.53,0,0,1,.3.3.91.91,0,0,1,0,.52q-.15.6-.57,1.88T37,40.63q-.63,1.57-1.4,3.25a28.81,28.81,0,0,1-1.62,3,11.7,11.7,0,0,1-1.75,2.25A2.58,2.58,0,0,1,30.5,50h-.1a5.13,5.13,0,0,1-3.9-1.52,10,10,0,0,1-2.2-3.73,20,20,0,0,1-1-4.57q-.23-2.37-.23-4.12,0-2.15.07-3.7t.2-2.6q.12-1,.2-1.72A10.56,10.56,0,0,0,23.65,27q0-.8,1-.93a4.94,4.94,0,0,1,2.17.27A7.07,7.07,0,0,1,29,27.48a2.21,2.21,0,0,1,1,1.73q0,.7-.05,1.55t-.1,1.8l-.1,1.88q-.05.93-.05,1.73a28.52,28.52,0,0,0,.63,6.6,24.24,24.24,0,0,0,1.27,4,3.57,3.57,0,0,0,1.13-1.1q.62-.85,1.28-1.95t1.25-2.35q.6-1.25,1.1-2.37t.83-2Q37.45,36.15,37.55,35.8Z"/><path class="cls-1" d="M51.45,22.45q.15-.55,1-.23a4,4,0,0,1,1.72,1.52,8.25,8.25,0,0,1,1.23,3.35A13,13,0,0,1,55,32.4q-.85,3.15-2,6.27T50.9,44.3q-1.2,3-2.45,5.6a.65.65,0,0,1-.62.52,2.44,2.44,0,0,1-1.12-.27c-.1.17-.32.25-.65.25a5.4,5.4,0,0,1-3.35-1.6,16,16,0,0,1-3.47-4.67,33.93,33.93,0,0,1-2.75-7.55,42.09,42.09,0,0,1-1.12-10.23,5.92,5.92,0,0,0-.08-.85,3,3,0,0,1,0-1,1.43,1.43,0,0,1,.35-.75,1.37,1.37,0,0,1,1-.3,5.27,5.27,0,0,1,3.92,1.35A4.47,4.47,0,0,1,41.9,28.1a40.29,40.29,0,0,0,.92,9.17A60.12,60.12,0,0,0,44.75,44q.55-1.35,1.32-3.1l1.55-3.52q.77-1.77,1.4-3.4a26.7,26.7,0,0,0,.92-2.77q.75-2.8,1-4.3t.35-2.3a5.8,5.8,0,0,0,0-1.17A2.4,2.4,0,0,1,51.45,22.45Z"/><path class="cls-1" d="M77.8,35.35a1,1,0,0,1,.35-.48.43.43,0,0,1,.4,0,.53.53,0,0,1,.3.32.91.91,0,0,1,0,.65q-.1.25-.4,1.33t-.87,2.55a30,30,0,0,1-1.45,3.13A16.61,16.61,0,0,1,74,45.85a10.48,10.48,0,0,1-2.77,2.3,7,7,0,0,1-3.53.9A10.2,10.2,0,0,1,63,48a11.31,11.31,0,0,1-3.5-2.7,12.05,12.05,0,0,1-2.17-3.62,10.86,10.86,0,0,1-.75-3.87,20,20,0,0,1,.55-4.72A27.25,27.25,0,0,1,58.5,28.9a20.22,20.22,0,0,1,1.73-3.3,11.91,11.91,0,0,1,1.67-2.1,4.9,4.9,0,0,1,2-1,10.08,10.08,0,0,1,2.42-.35,15.07,15.07,0,0,1,2.33.13,5.62,5.62,0,0,1,1.7.45,4.14,4.14,0,0,1,1.88,2.13,8.72,8.72,0,0,1,.72,3.67q0,4-1.65,6a5.09,5.09,0,0,1-4.1,2,9.34,9.34,0,0,1-1.87-.2,17.9,17.9,0,0,1-1.78-.45,11.2,11.2,0,0,0,.3,3.65A13.13,13.13,0,0,0,65,42.75,8.09,8.09,0,0,0,66.82,45a3.19,3.19,0,0,0,2.08.88,5.57,5.57,0,0,0,2.85-.73A9,9,0,0,0,74,43.35,11.77,11.77,0,0,0,75.62,41q.68-1.3,1.15-2.48a16.75,16.75,0,0,0,.7-2.05A7.41,7.41,0,0,1,77.8,35.35ZM68.4,26.5a2.66,2.66,0,0,0-1.8.7A6.28,6.28,0,0,0,65.2,29a13,13,0,0,0-1,2.65,22.85,22.85,0,0,0-.6,3.15,3.86,3.86,0,0,0,2.75.32,4,4,0,0,0,1.9-1.3,5.94,5.94,0,0,0,1.1-2.2,9.2,9.2,0,0,0,.35-2.42,5.19,5.19,0,0,0-.33-2Q69,26.5,68.4,26.5Z"/><path class="cls-1" d="M81.35,42.15a4.52,4.52,0,0,1,2.17.5A4.64,4.64,0,0,1,85,43.9a5.15,5.15,0,0,1,.85,1.68,6.1,6.1,0,0,1,.27,1.72,1.63,1.63,0,0,1-.55,1.15,4.63,4.63,0,0,1-1.37.92,9.51,9.51,0,0,1-1.8.6,8.15,8.15,0,0,1-1.83.23,2.56,2.56,0,0,1-1.4-.35,2.79,2.79,0,0,1-.9-.93,4.59,4.59,0,0,1-.53-1.25,5.24,5.24,0,0,1-.17-1.32A3.69,3.69,0,0,1,77.77,45a4.09,4.09,0,0,1,.73-1.35,4.51,4.51,0,0,1,1.2-1A3.12,3.12,0,0,1,81.35,42.15Z"/><path class="cls-1" d="M134.7,0a7.5,7.5,0,0,1,3.67,1.13A11.33,11.33,0,0,1,142,4.85a23.42,23.42,0,0,1,2.85,6.7A38.76,38.76,0,0,1,146,21.75a36.75,36.75,0,0,1-.68,6.92,44.17,44.17,0,0,1-1.87,6.83,42.16,42.16,0,0,1-2.82,6.2,34,34,0,0,1-3.48,5.13,18.58,18.58,0,0,1-3.9,3.6A8.89,8.89,0,0,1,129.25,52l-.5.08-.55,0a5.36,5.36,0,0,1-3-1,7.73,7.73,0,0,1-2.5-3.17,23.54,23.54,0,0,1-1.75-5.83,58,58,0,0,1-.83-8.85q-.65,3.4-1.55,6.83a60.46,60.46,0,0,1-2,6.17,27.83,27.83,0,0,1-2.1,4.48q-1,1.72-2,1.73h-.3a2.37,2.37,0,0,1-.45,0h-.45A5.8,5.8,0,0,1,108,51.6a9,9,0,0,1-2.5-2.48,12.1,12.1,0,0,1-1.62-3.48,13.88,13.88,0,0,1-.58-3.95q0-2,.13-4.75t.27-6.1q.15-3.3.3-7t.15-7.3q-1.35.15-2.77.45t-3,.6q-1.58.3-3.33.5a33,33,0,0,1-3.75.2A8,8,0,0,1,88,17.67,9.51,9.51,0,0,1,85.42,16a9.61,9.61,0,0,1-1.78-2.2,10.35,10.35,0,0,1-1-2.2,4.79,4.79,0,0,1-.25-1.68q0-.67.45-.67a1.05,1.05,0,0,1,.9.4,10.13,10.13,0,0,0,.75.87,4.29,4.29,0,0,0,1.3.88,6.08,6.08,0,0,0,2.5.4,41.38,41.38,0,0,0,5.17-.3q2.37-.3,4.4-.67l3.78-.73A25.28,25.28,0,0,1,105,9.65a4.65,4.65,0,0,1,.9-.1,6.63,6.63,0,0,1,2.6.58,7.56,7.56,0,0,1,2.45,1.7,8.87,8.87,0,0,1,1.8,2.77,9.66,9.66,0,0,1,.7,3.8q0,.75-.1,2.75t-.25,4.68q-.15,2.67-.3,5.7t-.3,5.77q-.15,2.75-.25,5t-.1,3.2a8.22,8.22,0,0,0,.13,1.35,9.41,9.41,0,0,0,.35,1.43,4.15,4.15,0,0,0,.55,1.13.88.88,0,0,0,.67.45,18.78,18.78,0,0,0,1.52-3.55q.77-2.3,1.53-5.12t1.42-5.9q.68-3.08,1.2-5.9t.85-5.12q.33-2.3.43-3.55-.05-.85-.15-1.5a2.71,2.71,0,0,1,0-1,.77.77,0,0,1,.58-.55,5.06,5.06,0,0,1,1.58-.1,4.58,4.58,0,0,1,2.22.9,7.86,7.86,0,0,1,2,2.07,12.81,12.81,0,0,1,1.4,2.83,9.23,9.23,0,0,1,.55,3.1q0,1.7,0,2.95t0,2.33q0,1.08,0,2.15t0,2.43a35.1,35.1,0,0,0,.25,4.35q.25,2,.55,3.65t.58,3q.27,1.33.38,2.28a8.38,8.38,0,0,0,1.92-2.5,31.21,31.21,0,0,0,1.88-4.12q.9-2.37,1.7-5.2t1.38-5.75q.57-2.93.9-5.77a46.94,46.94,0,0,0,.33-5.3,35.3,35.3,0,0,0-.6-6.82,37.56,37.56,0,0,0-1.42-5.33A31.7,31.7,0,0,0,135,4.73Q134.15,3.1,133.7,2a2.48,2.48,0,0,1-.3-1.52Q133.55.05,134.7,0Z"/><path class="cls-1" d="M157.1,24a4,4,0,0,1,2,.55,4.62,4.62,0,0,1,1.65,1.8,11.74,11.74,0,0,1,1.13,3.23,23.43,23.43,0,0,1,.42,4.83,34.26,34.26,0,0,1-.5,5.77,20.63,20.63,0,0,1-1.6,5.27,11.18,11.18,0,0,1-2.83,3.83,6.21,6.21,0,0,1-4.17,1.48,5.67,5.67,0,0,1-3.62-1.12,7.92,7.92,0,0,1-2.25-2.85,13,13,0,0,1-1.12-3.8,27.76,27.76,0,0,1-.3-4,34.08,34.08,0,0,1,.2-3.62,18,18,0,0,1,.7-3.48,8.54,8.54,0,0,1,1.4-2.75,3.86,3.86,0,0,1,2.25-1.45,5.34,5.34,0,0,1,1.2-2,5.11,5.11,0,0,1,1.65-1.12,6.62,6.62,0,0,1,1.88-.48A18.48,18.48,0,0,1,157.1,24ZM155.75,48.1q.8,0,1.55-1.55a19.12,19.12,0,0,0,1.3-3.91,40.17,40.17,0,0,0,.83-5.09,31.27,31.27,0,0,0,.13-5.09,12.27,12.27,0,0,0-.8-3.91,2.13,2.13,0,0,0-2-1.55q-.6,0-.85.85a18.49,18.49,0,0,0-.45,2q-.2,1.13-.5,2.28a3.53,3.53,0,0,1-.95,1.75q0,2.26-.15,4.76t-.12,4.61a12.5,12.5,0,0,0,.45,3.48Q154.6,48.1,155.75,48.1Z"/><path class="cls-1" d="M179.35,22q1.05,0,2.1.05a5.93,5.93,0,0,1,1.92.4,3.05,3.05,0,0,1,1.42,1.17,4.28,4.28,0,0,1,.55,2.38,22.58,22.58,0,0,1-.2,3,11.87,11.87,0,0,1-.62,2.6,5.27,5.27,0,0,1-1.1,1.83,2.18,2.18,0,0,1-1.62.7,7,7,0,0,1-3.15-.62Q177.4,33,177.4,32.1a10.8,10.8,0,0,1,.13-1.3q.12-.9.28-1.8t.45-2.3q-1.65,3.35-3,6.65-.55,1.45-1.1,3t-1,3.1q-.45,1.55-.78,3a16.32,16.32,0,0,0-.37,2.85q.2,1.35.42,2.27t.42,1.52l.33,1a2.17,2.17,0,0,1,.13.67q0,.35-.6.68a2.47,2.47,0,0,1-1.53.2,4.51,4.51,0,0,1-2-.87,7,7,0,0,1-2-2.57,19.14,19.14,0,0,1-1.52-4.93,43.09,43.09,0,0,1-.6-7.95q0-1.9.13-4.1t.4-4.08A16.39,16.39,0,0,1,166.4,24q.45-1.25,1.1-1.25a5.24,5.24,0,0,1,3.72,1.13,3.63,3.63,0,0,1,1.17,2.73,9.69,9.69,0,0,1-.15,1.63q-.15.88-.35,1.9t-.35,2.23a21.11,21.11,0,0,0-.15,2.6q0,2.75.15,4.85.3-1.65.85-3.6t1.23-3.92q.68-2,1.45-3.83t1.52-3.27a14.65,14.65,0,0,1,1.45-2.3Q178.75,22.05,179.35,22Z"/><path class="cls-1" d="M217.4,57.3a1.19,1.19,0,0,1,1.08.43.77.77,0,0,1-.08.92,3.11,3.11,0,0,1-1.33.93,6.69,6.69,0,0,1-2.62.42,9.66,9.66,0,0,1-5.35-1.45,15.38,15.38,0,0,1-3.92-3.65,28.89,28.89,0,0,1-3-4.8l-2.42-4.93a29,29,0,0,0-2.35-4,4.72,4.72,0,0,0-2.75-2,22.15,22.15,0,0,0-.45,4.05A20.45,20.45,0,0,0,195.1,47l.77,2.15a2,2,0,0,1,.2,1c0,.17-.31.25-.77.25a6,6,0,0,1-3-.85,8.27,8.27,0,0,1-2.7-2.6,15.25,15.25,0,0,1-2-4.5,24.09,24.09,0,0,1-.78-6.5q0-1.2.13-3.32t.33-4.6q.2-2.47.4-5.08t.4-4.77q.2-2.18.33-3.67t.13-1.8a1,1,0,0,1,.55-.95,3,3,0,0,1,1.38-.33,6.49,6.49,0,0,1,1.8.23,8.6,8.6,0,0,1,1.8.67,4.86,4.86,0,0,1,1.38,1,1.84,1.84,0,0,1,.55,1.25,29.92,29.92,0,0,1-.3,3.23q-.3,2.33-.7,5.23t-.75,6q-.35,3.07-.5,5.42a25.69,25.69,0,0,1,1.65-3.62,26.23,26.23,0,0,1,2.13-3.3,13.55,13.55,0,0,1,2.25-2.37,3.4,3.4,0,0,1,2-.9q1.25,0,2.52.07a6.67,6.67,0,0,1,2.3.52,3.8,3.8,0,0,1,1.67,1.45,5.35,5.35,0,0,1,.65,2.9,9.28,9.28,0,0,1-.5,3.18,7.45,7.45,0,0,1-1.4,2.4A9.41,9.41,0,0,1,205,36.5a13.37,13.37,0,0,1-2.6,1.25,35.66,35.66,0,0,1,1.72,3.55q.87,2.05,1.9,4.23t2.2,4.27a24.5,24.5,0,0,0,2.58,3.78,13,13,0,0,0,3,2.7A6.57,6.57,0,0,0,217.4,57.3ZM195.15,36.75A8.2,8.2,0,0,0,199.22,35a11.29,11.29,0,0,0,3.7-5.75,9.66,9.66,0,0,0,.32-1.73q0-1.5-.92-1.55a3.36,3.36,0,0,0-2.22,1.15,15,15,0,0,0-2.67,3.65A24.73,24.73,0,0,0,195.15,36.75Z"/><path class="cls-1" d="M216.45,42.15a4.52,4.52,0,0,1,2.17.5,4.64,4.64,0,0,1,1.5,1.25,5.15,5.15,0,0,1,.85,1.68,6.1,6.1,0,0,1,.27,1.72,1.63,1.63,0,0,1-.55,1.15,4.63,4.63,0,0,1-1.37.92,9.51,9.51,0,0,1-1.8.6,8.15,8.15,0,0,1-1.83.23,2.56,2.56,0,0,1-1.4-.35,2.79,2.79,0,0,1-.9-.93,4.59,4.59,0,0,1-.53-1.25,5.24,5.24,0,0,1-.17-1.32,3.69,3.69,0,0,1,.17-1.37,4.09,4.09,0,0,1,.73-1.35,4.51,4.51,0,0,1,1.2-1A3.12,3.12,0,0,1,216.45,42.15Z"/><path class="cls-1" d="M238.49,29.8a29.36,29.36,0,0,1,.9-7.15,34.53,34.53,0,0,1,2.52-6.9,35.26,35.26,0,0,1,3.88-6.17,29.82,29.82,0,0,1,4.92-5,23.22,23.22,0,0,1,5.68-3.35A16.13,16.13,0,0,1,262.54,0a6.05,6.05,0,0,1,3.5.9,4.94,4.94,0,0,1,1.85,2.35,8.63,8.63,0,0,1,.5,3.3,17.22,17.22,0,0,1-.55,3.8,23.85,23.85,0,0,1-1.32,3.8,25.42,25.42,0,0,1-1.75,3.3,12.47,12.47,0,0,1-1.87,2.35,2.67,2.67,0,0,1-1.7.9q-.7,0-.6-1.28a21.05,21.05,0,0,1,.58-3.22q.47-2,1.1-4.18a39.73,39.73,0,0,0,.95-4.17,11.08,11.08,0,0,0,.15-3.23q-.18-1.28-1.33-1.27a7.36,7.36,0,0,0-4.87,2.25,22.54,22.54,0,0,0-4.52,6,39.18,39.18,0,0,0-3.35,8.82A42,42,0,0,0,248,31a45.48,45.48,0,0,0,.75,8.87,30.54,30.54,0,0,0,1.8,6.12,11.31,11.31,0,0,0,2.23,3.55,3.25,3.25,0,0,0,2.07,1.15q.6,0,1.28-.93a15.93,15.93,0,0,0,1.38-2.35q.7-1.42,1.35-3.15T260,41q.5-1.6.8-2.85a8.87,8.87,0,0,0,.3-1.75.71.71,0,0,1,.75-.8,3,3,0,0,1,1.68.48,5.65,5.65,0,0,1,1.67,1.5,3.7,3.7,0,0,1,.75,2.33q0,.2-.17,1.3a17.7,17.7,0,0,1-.65,2.58,25.61,25.61,0,0,1-1.28,3.15,13.65,13.65,0,0,1-2,3.11,10.63,10.63,0,0,1-3,2.38,8.52,8.52,0,0,1-4.1.94,15,15,0,0,1-7.28-1.67,13.78,13.78,0,0,1-5-4.75,22.5,22.5,0,0,1-2.92-7.4A45.19,45.19,0,0,1,238.49,29.8Z"/><path class="cls-1" d="M283.34,22q1.05,0,2.1.05a5.93,5.93,0,0,1,1.92.4,3.05,3.05,0,0,1,1.42,1.17,4.28,4.28,0,0,1,.55,2.38,22.58,22.58,0,0,1-.2,3,11.87,11.87,0,0,1-.62,2.6,5.27,5.27,0,0,1-1.1,1.83,2.18,2.18,0,0,1-1.62.7,7,7,0,0,1-3.15-.62q-1.25-.62-1.25-1.48a10.8,10.8,0,0,1,.13-1.3q.12-.9.28-1.8t.45-2.3q-1.65,3.35-3,6.65-.55,1.45-1.1,3t-1,3.1q-.45,1.55-.78,3a16.32,16.32,0,0,0-.37,2.85q.2,1.35.42,2.27t.42,1.52l.33,1a2.17,2.17,0,0,1,.13.67q0,.35-.6.68a2.47,2.47,0,0,1-1.53.2,4.51,4.51,0,0,1-2-.87,7,7,0,0,1-2-2.57,19.14,19.14,0,0,1-1.52-4.93,43.09,43.09,0,0,1-.6-7.95q0-1.9.13-4.1t.4-4.08a16.39,16.39,0,0,1,.72-3.12q.45-1.25,1.1-1.25a5.24,5.24,0,0,1,3.72,1.13,3.63,3.63,0,0,1,1.17,2.73,9.69,9.69,0,0,1-.15,1.63q-.15.88-.35,1.9t-.35,2.23a21.11,21.11,0,0,0-.15,2.6q0,2.75.15,4.85.3-1.65.85-3.6t1.23-3.92q.68-2,1.45-3.83t1.52-3.27a14.65,14.65,0,0,1,1.45-2.3Q282.74,22.05,283.34,22Z"/><path class="cls-1" d="M311,35.35a1,1,0,0,1,.35-.48.43.43,0,0,1,.4,0,.53.53,0,0,1,.3.32.91.91,0,0,1,0,.65q-.1.25-.4,1.33t-.87,2.55a30,30,0,0,1-1.45,3.13,16.61,16.61,0,0,1-2.08,3.05,10.48,10.48,0,0,1-2.77,2.3,7,7,0,0,1-3.53.9,10.2,10.2,0,0,1-4.67-1,11.31,11.31,0,0,1-3.5-2.7,12.05,12.05,0,0,1-2.17-3.62,10.86,10.86,0,0,1-.75-3.87,20,20,0,0,1,.55-4.72,27.25,27.25,0,0,1,1.35-4.18,20.22,20.22,0,0,1,1.73-3.3,11.91,11.91,0,0,1,1.67-2.1,4.9,4.9,0,0,1,2-1,10.08,10.08,0,0,1,2.42-.35,15.07,15.07,0,0,1,2.33.13,5.62,5.62,0,0,1,1.7.45,4.14,4.14,0,0,1,1.88,2.13,8.72,8.72,0,0,1,.72,3.67q0,4-1.65,6a5.09,5.09,0,0,1-4.1,2,9.34,9.34,0,0,1-1.87-.2,17.9,17.9,0,0,1-1.78-.45,11.2,11.2,0,0,0,.3,3.65,13.13,13.13,0,0,0,1.22,3.2,8.09,8.09,0,0,0,1.8,2.27,3.19,3.19,0,0,0,2.08.88,5.57,5.57,0,0,0,2.85-.73,9,9,0,0,0,2.23-1.82,11.77,11.77,0,0,0,1.65-2.4q.68-1.3,1.15-2.48a16.75,16.75,0,0,0,.7-2.05A7.41,7.41,0,0,1,311,35.35Zm-9.4-8.85a2.66,2.66,0,0,0-1.8.7,6.28,6.28,0,0,0-1.4,1.85,13,13,0,0,0-1,2.65,22.85,22.85,0,0,0-.6,3.15,3.86,3.86,0,0,0,2.75.32,4,4,0,0,0,1.9-1.3,5.94,5.94,0,0,0,1.1-2.2,9.2,9.2,0,0,0,.35-2.42,5.19,5.19,0,0,0-.33-2Q302.29,26.5,301.64,26.5Z"/><path class="cls-1" d="M337.44,32.4a1,1,0,0,1,.35-.57.7.7,0,0,1,.47-.15.45.45,0,0,1,.35.28,1.08,1.08,0,0,1,0,.7q0,.3-.47,1.77T337,38q-.7,2.07-1.6,4.48T333.52,47a26.07,26.07,0,0,1-2.12,3.65,4.77,4.77,0,0,1-2.15,1.9,1.62,1.62,0,0,1-.8.15,3.15,3.15,0,0,1-2.07-.73,7.47,7.47,0,0,1-1.55-1.8,11.84,11.84,0,0,1-1.12-2.35q-.45-1.28-.75-2.35t-.45-1.8q-.15-.72-.25-.73c-.07,0-.18.19-.33.58s-.35.85-.6,1.4-.54,1.16-.87,1.83a10.59,10.59,0,0,1-1.15,1.82,6.86,6.86,0,0,1-1.48,1.4,3.12,3.12,0,0,1-1.82.58,7.41,7.41,0,0,1-2.8-.52,5.8,5.8,0,0,1-2.27-1.68,8.18,8.18,0,0,1-1.53-3,15.47,15.47,0,0,1-.55-4.43,25,25,0,0,1,.67-5.45,22.89,22.89,0,0,1,2-5.62,14.87,14.87,0,0,1,3.43-4.4,7.17,7.17,0,0,1,4.85-1.77q1.95,0,3.55.13a6.53,6.53,0,0,1,2.78.8A4.45,4.45,0,0,1,328,26.73a10.85,10.85,0,0,1,.65,4.23.63.63,0,0,1-.27.47,1.46,1.46,0,0,1-.62.3,1,1,0,0,1-.62-.05.51.51,0,0,1-.28-.52q0-.45-.08-1.3a9.19,9.19,0,0,0-.33-1.73,5.58,5.58,0,0,0-.67-1.52,1.29,1.29,0,0,0-1.12-.65,5.19,5.19,0,0,0-3.52,1.52,13.74,13.74,0,0,0-3,4.07,26,26,0,0,0-2,5.8,29.7,29.7,0,0,0-.75,6.7q0,.7,0,1.55a8.88,8.88,0,0,0,.23,1.57,3.56,3.56,0,0,0,.52,1.23,1.06,1.06,0,0,0,.9.5c.23,0,.52-.26.85-.77a13.28,13.28,0,0,0,1-2q.52-1.25,1-2.75t.88-3q.38-1.45.63-2.67a10.22,10.22,0,0,0,.25-1.87,8.5,8.5,0,0,1,0-.85,2,2,0,0,1,.33-.92,2.14,2.14,0,0,1,.88-.73,4,4,0,0,1,1.75-.3,5.21,5.21,0,0,1,3.3.83,2.24,2.24,0,0,1,1,1.63v.8q0,1.3,0,3.48t.13,4.3a28.29,28.29,0,0,0,.42,3.67q.3,1.55.9,1.55.25,0,.85-1.17t1.33-3q.72-1.77,1.53-3.9t1.47-4q.68-1.87,1.15-3.23Z"/><path class="cls-1" d="M363.94,15.55q1.1.05,1,.48t-1.07.73q-1.5.45-3.85,1t-5.15.92q-2.8.43-5.9.8t-6.15.63l-.92,5.45q-.48,2.8-.85,5.48T340.4,36a41.48,41.48,0,0,0-.25,4.25,46.06,46.06,0,0,0,.3,5.68,34.53,34.53,0,0,0,.7,4,18,18,0,0,0,.8,2.55q.4.95.55,1.42c.1.32.08.53,0,.63a1.87,1.87,0,0,1-1,.15A4,4,0,0,1,339,53.63a10.43,10.43,0,0,1-2.42-3.2,22.48,22.48,0,0,1-1.87-5.25A31.14,31.14,0,0,1,334,38a66.23,66.23,0,0,1,.6-8.48q.6-4.62,1.35-9.08-1.75.05-3.28,0t-2.82-.23a16.82,16.82,0,0,1-3.45-.73,23.15,23.15,0,0,1-3-1.2,24.85,24.85,0,0,1-2.5-1.4q-1.12-.72-2.07-1.38t-.58-.93a.67.67,0,0,1,.77-.27,73.16,73.16,0,0,0,8.3,1.13q4.55.38,9.4.52l.3-1.5q.55-3,1-5.1a18.53,18.53,0,0,0,.4-2.95q0-1.8,1-2.23a2.57,2.57,0,0,1,2.1,0,5.37,5.37,0,0,1,2.1,1.65,4,4,0,0,1,1,2.57,18.8,18.8,0,0,1-.2,2.25q-.2,1.5-.5,3.6l-.3,1.7q3.2,0,6.25-.08l5.73-.15,4.85-.12Q362.5,15.55,363.94,15.55Z"/><path class="cls-1" d="M366.6,35.35a1,1,0,0,1,.35-.48.43.43,0,0,1,.4,0,.53.53,0,0,1,.3.32.91.91,0,0,1,0,.65q-.1.25-.4,1.33t-.87,2.55a30,30,0,0,1-1.45,3.13,16.61,16.61,0,0,1-2.08,3.05,10.48,10.48,0,0,1-2.77,2.3,7,7,0,0,1-3.53.9,10.2,10.2,0,0,1-4.67-1,11.31,11.31,0,0,1-3.5-2.7,12.05,12.05,0,0,1-2.17-3.62,10.86,10.86,0,0,1-.75-3.87,20,20,0,0,1,.55-4.72,27.25,27.25,0,0,1,1.35-4.18A20.22,20.22,0,0,1,349,25.6a11.91,11.91,0,0,1,1.67-2.1,4.9,4.9,0,0,1,2-1,10.08,10.08,0,0,1,2.42-.35,15.07,15.07,0,0,1,2.33.13,5.62,5.62,0,0,1,1.7.45A4.14,4.14,0,0,1,361,24.88a8.72,8.72,0,0,1,.72,3.67q0,4-1.65,6a5.09,5.09,0,0,1-4.1,2,9.34,9.34,0,0,1-1.87-.2,17.9,17.9,0,0,1-1.78-.45,11.2,11.2,0,0,0,.3,3.65,13.13,13.13,0,0,0,1.22,3.2,8.09,8.09,0,0,0,1.8,2.27,3.19,3.19,0,0,0,2.08.88,5.57,5.57,0,0,0,2.85-.73,9,9,0,0,0,2.23-1.82,11.77,11.77,0,0,0,1.65-2.4q.68-1.3,1.15-2.48a16.75,16.75,0,0,0,.7-2.05A7.41,7.41,0,0,1,366.6,35.35Zm-9.4-8.85a2.66,2.66,0,0,0-1.8.7A6.28,6.28,0,0,0,354,29a13,13,0,0,0-1,2.65,22.85,22.85,0,0,0-.6,3.15,3.86,3.86,0,0,0,2.75.32,4,4,0,0,0,1.9-1.3,5.94,5.94,0,0,0,1.1-2.2,9.2,9.2,0,0,0,.35-2.42,5.19,5.19,0,0,0-.33-2Q357.84,26.5,357.19,26.5Z"/><path class="cls-1" d="M370.14,42.15a4.52,4.52,0,0,1,2.17.5,4.64,4.64,0,0,1,1.5,1.25,5.15,5.15,0,0,1,.85,1.68,6.1,6.1,0,0,1,.27,1.72,1.63,1.63,0,0,1-.55,1.15,4.63,4.63,0,0,1-1.37.92,9.51,9.51,0,0,1-1.8.6,8.15,8.15,0,0,1-1.83.23,2.56,2.56,0,0,1-1.4-.35,2.79,2.79,0,0,1-.9-.93,4.59,4.59,0,0,1-.53-1.25,5.24,5.24,0,0,1-.17-1.32,3.69,3.69,0,0,1,.17-1.37,4.09,4.09,0,0,1,.73-1.35,4.51,4.51,0,0,1,1.2-1A3.12,3.12,0,0,1,370.14,42.15Z"/><path class="cls-1" d="M401,7.25a21.09,21.09,0,0,0,.08,2.52q.13,1.83.36,4.37t.49,5.6q.26,3.05.44,6.23t.2,6.3q0,3.13-.17,5.73A24.62,24.62,0,0,1,401,44.9a19.78,19.78,0,0,1-2.6,4.9,10.83,10.83,0,0,1-3,2.88,4.84,4.84,0,0,1-2.78.83,2.26,2.26,0,0,1-1-.2c-.13-.1-.13-.31,0-.62a13.78,13.78,0,0,1,.7-1.35,15.87,15.87,0,0,0,1-2.4,31.43,31.43,0,0,0,1.05-3.77,40.3,40.3,0,0,0,.75-5.45q.15-2.1.1-5t-.2-6q-.15-3.15-.37-6.35t-.42-5.95q-.2-2.75-.33-4.83a19.72,19.72,0,0,1,0-3A3,3,0,0,1,394.49,7a6,6,0,0,1,1.42-1.33,5.83,5.83,0,0,1,1.76-.8,3.82,3.82,0,0,1,1.71-.1,2,2,0,0,1,1.24.75A2.43,2.43,0,0,1,401,7.25Z"/><path class="cls-1" d="M428.84,25.8a11.84,11.84,0,0,1-.2,1.8q-.2,1.2-.48,2.75t-.61,3.3q-.33,1.75-.61,3.4t-.48,3.1a17.9,17.9,0,0,0-.2,2.4q0,2.85.16,4.33a18,18,0,0,0,.34,2.23,6.87,6.87,0,0,0,.34,1.1,2.21,2.21,0,0,1,.16.9q0,.55-1.17.55a5.17,5.17,0,0,1-2.6-.85,8,8,0,0,1-2.6-2.72,9.39,9.39,0,0,1-1.17-5q0-2.1.17-4.32t.42-4.35q.25-2.12.57-4l.57-3.35q-.55,1.4-1.22,3.42t-1.4,4.35q-.73,2.33-1.45,4.7t-1.42,4.45q-.7,2.08-1.32,3.68a11.26,11.26,0,0,1-1.12,2.3.61.61,0,0,1-.4.5h-.15a1.87,1.87,0,0,1-.6.1,3.94,3.94,0,0,1-3-1.27A9.84,9.84,0,0,1,407.39,46a19.33,19.33,0,0,1-1.1-4.15q-.35-2.25-.47-4.23t-.1-3.35q0-1.37,0-1.58a1,1,0,0,0-.07-.48,1.34,1.34,0,0,0-.2-.25,1.29,1.29,0,0,1-.2-.25,1,1,0,0,1-.08-.48q0-.35,1.15-.55a9.7,9.7,0,0,1,2.52-.08,7,7,0,0,1,2.53.7,1.88,1.88,0,0,1,1.15,1.77q0,.4,0,1.48T412.44,37q0,1.28-.08,2.48t0,1.8q0,1,.07,1.85t.18,1.6q.45-1.6,1.13-3.65t1.45-4.27q.77-2.22,1.68-4.42t1.82-4.08A24.47,24.47,0,0,1,420.54,25a6,6,0,0,1,1.85-1.85,1.1,1.1,0,0,1,.4-.2l.28-.08.28,0h.47a2.43,2.43,0,0,1,.47.05,2.35,2.35,0,0,1,1.4.25,7.45,7.45,0,0,1,2.17,1A1.92,1.92,0,0,1,428.84,25.8Z"/><path class="cls-1" d="M453.74,25.8a11.84,11.84,0,0,1-.2,1.8q-.2,1.2-.48,2.75t-.61,3.3q-.33,1.75-.61,3.4t-.48,3.1a17.9,17.9,0,0,0-.2,2.4q0,2.85.16,4.33a18,18,0,0,0,.34,2.23,6.87,6.87,0,0,0,.34,1.1,2.21,2.21,0,0,1,.16.9q0,.55-1.17.55a5.17,5.17,0,0,1-2.6-.85,8,8,0,0,1-2.6-2.72,9.39,9.39,0,0,1-1.17-5q0-2.1.17-4.32t.42-4.35q.25-2.12.57-4l.57-3.35q-.55,1.4-1.22,3.42t-1.4,4.35q-.73,2.33-1.45,4.7t-1.42,4.45q-.7,2.08-1.32,3.68a11.26,11.26,0,0,1-1.12,2.3.61.61,0,0,1-.4.5h-.15a1.87,1.87,0,0,1-.6.1,3.94,3.94,0,0,1-3-1.27A9.84,9.84,0,0,1,432.29,46a19.33,19.33,0,0,1-1.1-4.15q-.35-2.25-.47-4.23t-.1-3.35q0-1.37,0-1.58a1,1,0,0,0-.07-.48,1.34,1.34,0,0,0-.2-.25,1.29,1.29,0,0,1-.2-.25,1,1,0,0,1-.08-.48q0-.35,1.15-.55a9.7,9.7,0,0,1,2.52-.08,7,7,0,0,1,2.53.7,1.88,1.88,0,0,1,1.15,1.77q0,.4,0,1.48T437.34,37q0,1.28-.08,2.48t0,1.8q0,1,.07,1.85t.18,1.6q.45-1.6,1.13-3.65t1.45-4.27q.77-2.22,1.68-4.42t1.82-4.08A24.47,24.47,0,0,1,445.44,25a6,6,0,0,1,1.85-1.85,1.1,1.1,0,0,1,.4-.2l.28-.08.28,0h.47a2.43,2.43,0,0,1,.47.05,2.35,2.35,0,0,1,1.4.25,7.45,7.45,0,0,1,2.17,1A1.92,1.92,0,0,1,453.74,25.8Z"/><path class="cls-1" d="M466.74,24a4,4,0,0,1,2,.55,4.62,4.62,0,0,1,1.65,1.8,11.74,11.74,0,0,1,1.13,3.23,23.43,23.43,0,0,1,.42,4.83,34.26,34.26,0,0,1-.5,5.77,20.63,20.63,0,0,1-1.6,5.27,11.18,11.18,0,0,1-2.83,3.83,6.21,6.21,0,0,1-4.17,1.48,5.67,5.67,0,0,1-3.62-1.12A7.92,7.92,0,0,1,457,46.73a13,13,0,0,1-1.12-3.8,27.76,27.76,0,0,1-.3-4,34.08,34.08,0,0,1,.2-3.62,18,18,0,0,1,.7-3.48,8.54,8.54,0,0,1,1.4-2.75,3.86,3.86,0,0,1,2.25-1.45,5.34,5.34,0,0,1,1.2-2A5.11,5.11,0,0,1,463,24.52a6.62,6.62,0,0,1,1.88-.48A18.48,18.48,0,0,1,466.74,24ZM465.39,48.1q.8,0,1.55-1.55a19.12,19.12,0,0,0,1.3-3.91,40.17,40.17,0,0,0,.83-5.09,31.27,31.27,0,0,0,.13-5.09,12.27,12.27,0,0,0-.8-3.91,2.13,2.13,0,0,0-2-1.55q-.6,0-.85.85a18.49,18.49,0,0,0-.45,2q-.2,1.13-.5,2.28a3.53,3.53,0,0,1-.95,1.75q0,2.26-.15,4.76t-.12,4.61a12.5,12.5,0,0,0,.45,3.48Q464.24,48.1,465.39,48.1Z"/><path class="cls-1" d="M491,22.45q.15-.55,1-.23a4,4,0,0,1,1.72,1.52A8.25,8.25,0,0,1,495,27.1a13,13,0,0,1-.43,5.3q-.85,3.15-2,6.27t-2.12,5.63q-1.2,3-2.45,5.6a.65.65,0,0,1-.62.52,2.44,2.44,0,0,1-1.12-.27c-.1.17-.32.25-.65.25a5.4,5.4,0,0,1-3.35-1.6,16,16,0,0,1-3.47-4.67A33.93,33.93,0,0,1,476,36.58a42.09,42.09,0,0,1-1.12-10.23,5.92,5.92,0,0,0-.08-.85,3,3,0,0,1,0-1,1.43,1.43,0,0,1,.35-.75,1.37,1.37,0,0,1,1-.3,5.27,5.27,0,0,1,3.92,1.35,4.47,4.47,0,0,1,1.33,3.25,40.29,40.29,0,0,0,.92,9.17A60.13,60.13,0,0,0,484.29,44q.55-1.35,1.33-3.1l1.55-3.52q.77-1.77,1.4-3.4a26.93,26.93,0,0,0,.92-2.77q.75-2.8,1-4.3t.35-2.3a5.88,5.88,0,0,0,0-1.17A2.39,2.39,0,0,1,491,22.45Z"/><path class="cls-1" d="M524.79,32.4a1,1,0,0,1,.35-.57.7.7,0,0,1,.47-.15A.45.45,0,0,1,526,32a1.08,1.08,0,0,1,0,.7q0,.3-.47,1.77T524.39,38q-.7,2.07-1.6,4.48T520.87,47a26.07,26.07,0,0,1-2.12,3.65,4.77,4.77,0,0,1-2.15,1.9,1.62,1.62,0,0,1-.8.15,3.15,3.15,0,0,1-2.07-.73,7.47,7.47,0,0,1-1.55-1.8A11.84,11.84,0,0,1,511,47.77q-.45-1.28-.75-2.35t-.45-1.8q-.15-.72-.25-.73c-.07,0-.18.19-.33.58s-.35.85-.6,1.4-.54,1.16-.87,1.83a10.59,10.59,0,0,1-1.15,1.82,6.86,6.86,0,0,1-1.48,1.4,3.12,3.12,0,0,1-1.82.58,7.41,7.41,0,0,1-2.8-.52,5.8,5.8,0,0,1-2.27-1.68,8.18,8.18,0,0,1-1.53-3,15.47,15.47,0,0,1-.55-4.43,25,25,0,0,1,.67-5.45,22.89,22.89,0,0,1,2-5.62,14.87,14.87,0,0,1,3.43-4.4,7.17,7.17,0,0,1,4.85-1.77q1.95,0,3.55.13a6.53,6.53,0,0,1,2.78.8,4.45,4.45,0,0,1,1.83,2.15A10.85,10.85,0,0,1,516,31a.63.63,0,0,1-.27.47,1.46,1.46,0,0,1-.62.3,1,1,0,0,1-.62-.05.51.51,0,0,1-.28-.52q0-.45-.08-1.3a9.19,9.19,0,0,0-.33-1.73,5.58,5.58,0,0,0-.67-1.52A1.29,1.29,0,0,0,512,26a5.19,5.19,0,0,0-3.52,1.52,13.74,13.74,0,0,0-3,4.07,26,26,0,0,0-2,5.8,29.7,29.7,0,0,0-.75,6.7q0,.7,0,1.55a8.88,8.88,0,0,0,.23,1.57,3.56,3.56,0,0,0,.52,1.23,1.06,1.06,0,0,0,.9.5c.23,0,.52-.26.85-.77a13.28,13.28,0,0,0,1-2q.52-1.25,1-2.75t.88-3q.38-1.45.63-2.67a10.22,10.22,0,0,0,.25-1.87,8.5,8.5,0,0,1,0-.85,2,2,0,0,1,.33-.92,2.14,2.14,0,0,1,.88-.73,4,4,0,0,1,1.75-.3,5.21,5.21,0,0,1,3.3.83,2.24,2.24,0,0,1,1,1.63v.8q0,1.3,0,3.48t.13,4.3a28.29,28.29,0,0,0,.42,3.67q.3,1.55.9,1.55.25,0,.85-1.17t1.33-3q.72-1.77,1.53-3.9t1.47-4q.68-1.87,1.15-3.23Z"/><path class="cls-1" d="M551.29,15.55q1.1.05,1,.48t-1.07.73q-1.5.45-3.85,1t-5.15.92q-2.8.43-5.9.8t-6.15.63l-.92,5.45q-.48,2.8-.85,5.48T527.74,36a41.48,41.48,0,0,0-.25,4.25,46.06,46.06,0,0,0,.3,5.68,34.53,34.53,0,0,0,.7,4,18,18,0,0,0,.8,2.55q.4.95.55,1.42c.1.32.08.53,0,.63a1.87,1.87,0,0,1-1,.15,4,4,0,0,1-2.45-1.08,10.43,10.43,0,0,1-2.42-3.2,22.48,22.48,0,0,1-1.87-5.25,31.14,31.14,0,0,1-.75-7.22,66.23,66.23,0,0,1,.6-8.48q.6-4.62,1.35-9.08-1.75.05-3.28,0t-2.82-.23a16.82,16.82,0,0,1-3.45-.73,23.15,23.15,0,0,1-3-1.2,24.85,24.85,0,0,1-2.5-1.4q-1.12-.72-2.07-1.38t-.58-.93a.67.67,0,0,1,.77-.27,73.16,73.16,0,0,0,8.3,1.13q4.55.38,9.4.52l.3-1.5q.55-3,1-5.1a18.53,18.53,0,0,0,.4-2.95q0-1.8,1-2.23a2.57,2.57,0,0,1,2.1,0,5.37,5.37,0,0,1,2.1,1.65,4,4,0,0,1,1,2.57,18.8,18.8,0,0,1-.2,2.25q-.2,1.5-.5,3.6l-.3,1.7q3.2,0,6.25-.08l5.73-.15,4.85-.12Q549.84,15.55,551.29,15.55Z"/><path class="cls-1" d="M553.94,35.35a1,1,0,0,1,.35-.48.43.43,0,0,1,.4,0,.53.53,0,0,1,.3.32.91.91,0,0,1,0,.65q-.1.25-.4,1.33t-.87,2.55a30,30,0,0,1-1.45,3.13,16.61,16.61,0,0,1-2.08,3.05,10.48,10.48,0,0,1-2.77,2.3,7,7,0,0,1-3.53.9,10.2,10.2,0,0,1-4.67-1,11.31,11.31,0,0,1-3.5-2.7,12.05,12.05,0,0,1-2.17-3.62,10.86,10.86,0,0,1-.75-3.87,20,20,0,0,1,.55-4.72,27.25,27.25,0,0,1,1.35-4.18,20.22,20.22,0,0,1,1.73-3.3A11.91,11.91,0,0,1,538,23.5a4.9,4.9,0,0,1,2-1,10.08,10.08,0,0,1,2.42-.35,15.07,15.07,0,0,1,2.33.13,5.62,5.62,0,0,1,1.7.45,4.14,4.14,0,0,1,1.88,2.13,8.72,8.72,0,0,1,.72,3.67q0,4-1.65,6a5.09,5.09,0,0,1-4.1,2,9.34,9.34,0,0,1-1.87-.2,17.9,17.9,0,0,1-1.78-.45,11.2,11.2,0,0,0,.3,3.65,13.13,13.13,0,0,0,1.22,3.2A8.09,8.09,0,0,0,543,45a3.19,3.19,0,0,0,2.08.88,5.57,5.57,0,0,0,2.85-.73,9,9,0,0,0,2.23-1.82,11.77,11.77,0,0,0,1.65-2.4q.68-1.3,1.15-2.48a16.75,16.75,0,0,0,.7-2.05A7.41,7.41,0,0,1,553.94,35.35Zm-9.4-8.85a2.66,2.66,0,0,0-1.8.7,6.28,6.28,0,0,0-1.4,1.85,13,13,0,0,0-1,2.65,22.85,22.85,0,0,0-.6,3.15,3.86,3.86,0,0,0,2.75.32,4,4,0,0,0,1.9-1.3,5.94,5.94,0,0,0,1.1-2.2,9.2,9.2,0,0,0,.35-2.42,5.19,5.19,0,0,0-.33-2Q545.19,26.5,544.54,26.5Z"/><path class="cls-1" d="M557.49,42.15a4.52,4.52,0,0,1,2.17.5,4.64,4.64,0,0,1,1.5,1.25,5.15,5.15,0,0,1,.85,1.68,6.1,6.1,0,0,1,.27,1.72,1.63,1.63,0,0,1-.55,1.15,4.63,4.63,0,0,1-1.37.92,9.51,9.51,0,0,1-1.8.6,8.15,8.15,0,0,1-1.83.23,2.56,2.56,0,0,1-1.4-.35,2.79,2.79,0,0,1-.9-.93,4.59,4.59,0,0,1-.53-1.25,5.24,5.24,0,0,1-.17-1.32,3.69,3.69,0,0,1,.17-1.37,4.09,4.09,0,0,1,.73-1.35,4.51,4.51,0,0,1,1.2-1A3.12,3.12,0,0,1,557.49,42.15Z"/></g></g></svg>