<svg xmlns="http://www.w3.org/2000/svg" xmlns:xlink="http://www.w3.org/1999/xlink" viewBox="0 0 394.92 151.77"><defs><style>.cls-1{fill:#f2f2f2;}.cls-2{fill:url(#linear-gradient);}.cls-3{fill:url(#linear-gradient-2);}.cls-4{fill:url(#linear-gradient-3);}.cls-5{fill:url(#linear-gradient-4);}.cls-6{fill:url(#linear-gradient-5);}.cls-7{fill:url(#linear-gradient-6);}</style><linearGradient id="linear-gradient" x1="36.95" y1="-16460.02" x2="0.06" y2="-16460.02" gradientTransform="matrix(1, 0, 0, -1, 0, -16395.67)" gradientUnits="userSpaceOnUse"><stop offset="0.17" stop-color="#00aca1"/><stop offset="0.32" stop-color="#00a89c"/><stop offset="0.49" stop-color="#009b8f"/><stop offset="0.66" stop-color="#008679"/><stop offset="0.84" stop-color="#00695a"/><stop offset="0.93" stop-color="#005747"/></linearGradient><linearGradient id="linear-gradient-2" x1="36.67" y1="-16438.84" x2="18.69" y2="-16406.6" gradientTransform="matrix(1, 0, 0, -1, 0, -16395.67)" gradientUnits="userSpaceOnUse"><stop offset="0" stop-color="#fdb824"/><stop offset="0.17" stop-color="#fbb224"/><stop offset="0.39" stop-color="#f5a223"/><stop offset="0.65" stop-color="#eb8621"/><stop offset="0.92" stop-color="#dd601f"/><stop offset="1" stop-color="#d9541e"/></linearGradient><linearGradient id="linear-gradient-3" x1="36.89" y1="-16438.57" x2="0" y2="-16438.57" xlink:href="#linear-gradient"/><linearGradient id="linear-gradient-4" x1="74.08" y1="-16460.15" x2="55.84" y2="-16428.04" gradientTransform="matrix(1, 0, 0, -1, 0, -16395.67)" gradientUnits="userSpaceOnUse"><stop offset="0" stop-color="#d6e03e"/><stop offset="0.17" stop-color="#d0dc3d"/><stop offset="0.38" stop-color="#c0cf39"/><stop offset="0.62" stop-color="#a6ba32"/><stop offset="0.88" stop-color="#819d29"/><stop offset="1" stop-color="#6d8d24"/></linearGradient><linearGradient id="linear-gradient-5" x1="36.61" y1="-16438.9" x2="56.28" y2="-16471.66" xlink:href="#linear-gradient"/><linearGradient id="linear-gradient-6" x1="37.09" y1="-16417.12" x2="74.3" y2="-16417.12" xlink:href="#linear-gradient-4"/></defs><title>logo-engeniring</title><g id="Layer_2" data-name="Layer 2"><g id="Layer_1-2" data-name="Layer 1"><path class="cls-1" d="M393.7,58.08a4.32,4.32,0,0,0-3.08-1.28h-7.36a1.45,1.45,0,0,0-1.45,1.45v50.9a4.15,4.15,0,0,0,1.28,3,4.22,4.22,0,0,0,3,1.28h7.43a1.41,1.41,0,0,0,1.4-1.46V61.13A4.29,4.29,0,0,0,393.7,58.08Z"/><path class="cls-1" d="M188,56.81h-7.37a1.45,1.45,0,0,0-1.45,1.45v50.9a4.15,4.15,0,0,0,1.28,3,4.3,4.3,0,0,0,3,1.28h7.39a1.46,1.46,0,0,0,1.45-1.46V61.13a4.24,4.24,0,0,0-1.28-3A4.31,4.31,0,0,0,188,56.81Z"/><path class="cls-1" d="M162.44,65a30.08,30.08,0,0,0-21.14-8.24A28.25,28.25,0,0,0,128.15,60c-1.23.65-3,1.86-3.06,1.9s0,.16.05.12a23.26,23.26,0,0,1,8.25-2.71.07.07,0,0,1,0,.14A26.22,26.22,0,0,0,125.09,63c-.09.05,0,.16.05.13a23,23,0,0,1,8.33-2.29c.06,0,.13.11,0,.14a29.19,29.19,0,0,0-8.4,3.12c-.09.06,0,.15,0,.13a23.65,23.65,0,0,1,8.42-1.83c.08,0,.12.12,0,.14a33.26,33.26,0,0,0-8.47,2.63c-.1.05,0,.16,0,.13a26.64,26.64,0,0,1,8.5-1.33.07.07,0,0,1,0,.14c-1,.18-5.62.81-8.55,2.18-.09,0,0,.15,0,.13a31.65,31.65,0,0,1,8.59-.93s.11.12,0,.14a47.62,47.62,0,0,0-8.62,1.79.07.07,0,0,0,0,.14,44.53,44.53,0,0,1,8.68-.5c.06,0,.1.13,0,.14a63.88,63.88,0,0,0-8.69,1.38.07.07,0,0,0,0,.14c2.63-.12,3.62-.09,8.15,0h8a16.19,16.19,0,0,1,11.81,4.82,15.71,15.71,0,0,1,4.86,11.5,16.67,16.67,0,0,1-33.33,0V38.54a4.31,4.31,0,0,0-1.26-3.08,4.46,4.46,0,0,0-3.08-1.24h-7.36a1.45,1.45,0,0,0-1.45,1.41V85.06a26.85,26.85,0,0,0,8.76,20,30.87,30.87,0,0,0,42.22,0,27.22,27.22,0,0,0,0-40Z"/><path class="cls-1" d="M300.07,65.15a30.8,30.8,0,0,0-42.16,0,26.71,26.71,0,0,0-8.79,20,26.42,26.42,0,0,0,8.78,20,29.6,29.6,0,0,0,21,8.28,28.12,28.12,0,0,0,10-1.71,23.41,23.41,0,0,0,6.07-3.2.07.07,0,0,0-.08-.11,21.06,21.06,0,0,1-8.22,2.59c-.05,0-.12-.11,0-.14a31.46,31.46,0,0,0,8.3-3.49c.07-.07,0-.16-.07-.12a21.38,21.38,0,0,1-8.28,2.26.07.07,0,1,1,0-.14,36.41,36.41,0,0,0,8.35-3.16c.07,0,0-.16,0-.13a22.42,22.42,0,0,1-8.36,1.86c-.08,0-.11-.12,0-.14a39.92,39.92,0,0,0,8.41-2.76.07.07,0,0,0,0-.13,23.86,23.86,0,0,1-8.41,1.46c-.08,0-.11-.12,0-.14A44.68,44.68,0,0,0,295,103.9c.08,0,0-.15,0-.13a28.86,28.86,0,0,1-8.47,1.05.07.07,0,1,1,0-.14,53.55,53.55,0,0,0,8.5-1.94.07.07,0,0,0,0-.14,37,37,0,0,1-8.53.65.07.07,0,1,1,0-.14,82.92,82.92,0,0,0,8.55-1.54.07.07,0,0,0,0-.14c-4.95.35-7.25.06-10.6.06h-5.49a15.91,15.91,0,0,1-11.75-4.78,15.68,15.68,0,0,1-4.9-11.53,16.68,16.68,0,0,1,33.37,0v26.74a1.5,1.5,0,0,0,1.51,1.51h10.27a1.46,1.46,0,0,0,1.45-1.46V85.19A26.64,26.64,0,0,0,300.07,65.15Z"/><path class="cls-1" d="M204.69,69h14.16c1.55,0,1,0,5.05-.16,3.63-.16,5.95-1.3,8.75-1.54a.07.07,0,0,0,0-.14c-2.78-.06-6.79.35-7.66.43-.11,0-.06-.13,0-.14A53.86,53.86,0,0,1,233.91,66a.07.07,0,0,0,0-.14,59,59,0,0,0-7.73.32c-.1,0-.06-.13,0-.14A41.23,41.23,0,0,1,235,64.73a.07.07,0,1,0,0-.14,51.81,51.81,0,0,0-7.87.26c-.1,0-.07-.13,0-.14a46,46,0,0,1,8.81-1.21.07.07,0,0,0,0-.14,40.09,40.09,0,0,0-7.9.09c-.11,0-.05-.13,0-.14a35.79,35.79,0,0,1,8.56-1,.07.07,0,0,0,0-.14,32.74,32.74,0,0,0-7.9,0c-.11,0-.06-.13,0-.14a33.38,33.38,0,0,1,8.37-.94.07.07,0,0,0,0-.14,27.61,27.61,0,0,0-7.9-.15c-.11,0-.06-.13,0-.14a29,29,0,0,1,8-.73.07.07,0,0,0,0-.14,24.48,24.48,0,0,0-7.86-.28c-.12,0-.07-.13,0-.14a22.58,22.58,0,0,1,7.44-.67c.08,0,.09-.12,0-.14a19.73,19.73,0,0,0-7.75-.42c-.1,0-.1-.12,0-.14a23.23,23.23,0,0,1,6.81-.53.07.07,0,0,0,0-.14,14.73,14.73,0,0,0-3.47-.5H201.82a1.45,1.45,0,0,0-1.45,1.45V64.6a4.33,4.33,0,0,0,1.27,3.09A4.23,4.23,0,0,0,204.69,69Z"/><path class="cls-1" d="M240.07,101.29H225.92c-1.55,0-1,0-5.05.16-3.65.16-6,1.3-8.76,1.54a.07.07,0,0,0,0,.14c2.78.06,6.79-.35,7.66-.43.11,0,.06.13,0,.14a53.74,53.74,0,0,1-8.94,1.41.07.07,0,0,0,0,.14,59.56,59.56,0,0,0,7.74-.32c.1,0,.06.13,0,.14a41.73,41.73,0,0,1-8.86,1.32.07.07,0,1,0,0,.14,46.73,46.73,0,0,0,7.83-.26c.1,0,.07.13,0,.14a42.69,42.69,0,0,1-8.77,1.24.07.07,0,0,0,0,.14,40.2,40.2,0,0,0,7.91-.08c.11,0,.05.13,0,.14a36,36,0,0,1-8.59,1,.07.07,0,0,0,0,.13,32.85,32.85,0,0,0,7.94,0c.11,0,.06.13,0,.14a33.28,33.28,0,0,1-8.42.95.07.07,0,0,0,0,.13,27.85,27.85,0,0,0,7.94.15c.11,0,.06.13,0,.14a29.19,29.19,0,0,1-8,.73c-.08,0-.09.12,0,.14a25.35,25.35,0,0,0,7.89.24c.12,0,.06.13,0,.14a22.75,22.75,0,0,1-7.48.67c-.08,0-.09.12,0,.14a20,20,0,0,0,7.8.42c.1,0,.1.12,0,.14a23.26,23.26,0,0,1-6.81.53.07.07,0,0,0,0,.14,14.71,14.71,0,0,0,3.45.5h30.6A1.45,1.45,0,0,0,244.4,112v-6.34a4.33,4.33,0,0,0-1.28-3.09A4.24,4.24,0,0,0,240.07,101.29Z"/><path class="cls-1" d="M213.07,101.27,240.95,76.9a11.85,11.85,0,0,0-4-19.19c-.08,0-.12,0-.06.07,2.7,2.62-.83,7-3.5,9.65,0,0-29.54,25.92-29.54,25.92a12,12,0,0,0-3.32,8.23,11.59,11.59,0,0,0,6.83,10.75s.07,0,0,0C204.8,108.32,213.06,101.27,213.07,101.27Z"/><path class="cls-1" d="M364.91,65.15a31,31,0,0,0-42.29,0,26.83,26.83,0,0,0-8.76,20,26.54,26.54,0,0,0,8.74,20,29.76,29.76,0,0,0,21.1,8.28h.34c.55,0,1.09,0,1.62,0h0a28.12,28.12,0,0,0,8.15-1.65,23.61,23.61,0,0,0,6-3.2.07.07,0,0,0-.08-.11,20.7,20.7,0,0,1-8.22,2.59c-.05,0-.12-.11,0-.14a30.84,30.84,0,0,0,8.3-3.49c.07-.07,0-.16-.07-.12a21,21,0,0,1-8.28,2.26.07.07,0,1,1,0-.14,35.91,35.91,0,0,0,8.35-3.16c.07,0,0-.16,0-.13A22.08,22.08,0,0,1,351.4,108c-.08,0-.11-.12,0-.14a39.64,39.64,0,0,0,8.41-2.76.07.07,0,0,0,0-.13,23.54,23.54,0,0,1-8.41,1.46c-.08,0-.1-.12,0-.14a44.67,44.67,0,0,0,8.46-2.35.07.07,0,0,0,0-.13,28.56,28.56,0,0,1-8.47,1.05.07.07,0,1,1,0-.14,53.57,53.57,0,0,0,8.5-1.94.07.07,0,0,0,0-.14,36.8,36.8,0,0,1-8.53.65c-.07,0-.12-.12,0-.14a83,83,0,0,0,8.54-1.54.07.07,0,0,0,0-.14c-4.87.35-7.2.06-10.59.06h-5.51a16.07,16.07,0,0,1-11.81-4.78A15.67,15.67,0,0,1,327,85.19a15.85,15.85,0,0,1,4.86-11.59,16.65,16.65,0,0,1,28.51,11.59s.16,25.72.14,26a14.64,14.64,0,0,1-5,9.86,16.54,16.54,0,0,1-11.65,4.62H330.49a4.33,4.33,0,0,0-3.08,1.28,4.39,4.39,0,0,0-1.2,3.07v6.13a1.39,1.39,0,0,0,1.37,1.45h16.2a30.23,30.23,0,0,0,21.14-8.24,26.69,26.69,0,0,0,8.78-20V85.19A26.88,26.88,0,0,0,364.91,65.15Z"/><polygon class="cls-2" points="37.15 85.8 0 64.35 37.15 42.9 37.15 85.8"/><polygon class="cls-3" points="37.15 42.9 0 21.45 37.15 0 37.15 42.9"/><polygon class="cls-4" points="37.15 42.9 0 64.35 0 21.45 37.15 42.9"/><polygon class="cls-5" points="74.31 64.35 37.15 42.9 74.31 21.45 74.31 64.35"/><polygon class="cls-6" points="74.31 64.35 37.15 85.8 37.15 42.9 74.31 64.35"/><polygon class="cls-7" points="74.3 21.45 37.15 42.9 37.15 0 74.3 21.45"/><path class="cls-1" d="M113.46,130.34H123v1.29h-8.16v5.93h6.78v1.26h-6.78v6.23H123v1.26h-9.59Z"/><path class="cls-1" d="M125.88,146.32v-11.5h1.36v.85a9.06,9.06,0,0,1,3.75-1.08c3.15,0,3.84,1.47,3.84,5.68v6h-1.38v-6c0-3.38-.37-4.51-2.67-4.51a8.44,8.44,0,0,0-3.54,1v9.52Z"/><path class="cls-1" d="M137.63,148.23c0-1.4.64-2,1.86-2.9a1.83,1.83,0,0,1-.58-1.56,8.31,8.31,0,0,1,.74-1.79c-1-.41-1.89-1.33-1.89-3.47,0-2.81,1.66-3.91,4.16-3.91a11.67,11.67,0,0,1,2.41.3l3.33-.07V136l-2.3,0a3.2,3.2,0,0,1,.83,2.51c0,2.92-1.45,3.84-4.35,3.84a10.94,10.94,0,0,1-1.17-.09,8,8,0,0,0-.46,1.43c0,1,.18,1.1,2.92,1.13,3.13,0,4.3.55,4.3,3.33,0,2.58-1.72,3.63-5,3.63C138.71,151.77,137.63,150.89,137.63,148.23Zm2.83-2.3c-1.1.78-1.45,1.22-1.45,2.21,0,1.79.62,2.44,3.43,2.44,2.53,0,3.61-.69,3.61-2.39,0-2-.83-2.16-3-2.16C142.18,146,140.46,145.93,140.46,145.93Zm4.35-7.43c0-2-.76-2.76-2.87-2.76-1.93,0-2.76.76-2.76,2.76s.83,2.69,2.76,2.69C144,141.19,144.81,140.48,144.81,138.5Z"/><path class="cls-1" d="M149.84,130.22h1.36v1.72h-1.36Zm0,4.6h1.36v11.5h-1.36Z"/><path class="cls-1" d="M154.65,146.32v-11.5H156v.85a9.06,9.06,0,0,1,3.75-1.08c3.15,0,3.84,1.47,3.84,5.68v6h-1.38v-6c0-3.38-.37-4.51-2.67-4.51a8.44,8.44,0,0,0-3.54,1v9.52Z"/><path class="cls-1" d="M175.21,145.1l0,1.13s-2.6.32-4.39.32c-3.43,0-4.46-2.09-4.46-5.93,0-4.44,1.93-6,4.74-6,3,0,4.53,1.59,4.53,5.45l0,1.1h-7.82c0,2.71.78,4.16,3.2,4.16C172.68,145.31,175.21,145.1,175.21,145.1Zm-.92-5.1c0-3.1-1-4.21-3.15-4.21s-3.33,1.15-3.33,4.21Z"/><path class="cls-1" d="M186.8,145.1l0,1.13s-2.6.32-4.39.32c-3.43,0-4.46-2.09-4.46-5.93,0-4.44,1.93-6,4.74-6,3,0,4.53,1.59,4.53,5.45l0,1.1H179.4c0,2.71.78,4.16,3.2,4.16C184.27,145.31,186.8,145.1,186.8,145.1Zm-.92-5.1c0-3.1-1-4.21-3.15-4.21s-3.33,1.15-3.33,4.21Z"/><path class="cls-1" d="M190.09,134.82h1.36v1.66a12.26,12.26,0,0,1,4.35-1.89V136a16.54,16.54,0,0,0-4.35,1.72v8.62h-1.36Z"/><path class="cls-1" d="M197.89,130.22h1.36v1.72h-1.36Zm0,4.6h1.36v11.5h-1.36Z"/><path class="cls-1" d="M202.7,146.32v-11.5h1.36v.85a9.06,9.06,0,0,1,3.75-1.08c3.15,0,3.84,1.47,3.84,5.68v6h-1.38v-6c0-3.38-.37-4.51-2.67-4.51a8.44,8.44,0,0,0-3.54,1v9.52Z"/><path class="cls-1" d="M214.45,148.23c0-1.4.64-2,1.86-2.9a1.83,1.83,0,0,1-.58-1.56,8.31,8.31,0,0,1,.74-1.79c-1-.41-1.89-1.33-1.89-3.47,0-2.81,1.66-3.91,4.16-3.91a11.67,11.67,0,0,1,2.41.3l3.33-.07V136l-2.3,0a3.2,3.2,0,0,1,.83,2.51c0,2.92-1.45,3.84-4.35,3.84a10.94,10.94,0,0,1-1.17-.09,8,8,0,0,0-.46,1.43c0,1,.18,1.1,2.92,1.13,3.13,0,4.3.55,4.3,3.33,0,2.58-1.72,3.63-5,3.63C215.53,151.77,214.45,150.89,214.45,148.23Zm2.83-2.3c-1.1.78-1.45,1.22-1.45,2.21,0,1.79.62,2.44,3.43,2.44,2.53,0,3.61-.69,3.61-2.39,0-2-.83-2.16-3-2.16C219,146,217.28,145.93,217.28,145.93Zm4.35-7.43c0-2-.76-2.76-2.87-2.76-1.93,0-2.76.76-2.76,2.76s.83,2.69,2.76,2.69C220.87,141.19,221.62,140.48,221.62,138.5Z"/></g></g></svg>